<?xml version="1.0" encoding="UTF-8" standalone="no"?>
<!DOCTYPE svg PUBLIC "-//W3C//DTD SVG 1.1//EN"
 "http://www.w3.org/Graphics/SVG/1.1/DTD/svg11.dtd">
<!-- Generated by graphviz version 14.1.0 (20251206.1807)
 -->
<!-- Title: SAGEMemArchitecture Pages: 1 -->
<svg width="1971pt" height="356pt"
 viewBox="0.00 0.00 1971.00 356.00" xmlns="http://www.w3.org/2000/svg" xmlns:xlink="http://www.w3.org/1999/xlink">
<g id="graph0" class="graph" transform="scale(1 1) rotate(0) translate(14.4 341.55)">
<title>SAGEMemArchitecture</title>
<polygon fill="white" stroke="none" points="-14.4,14.4 -14.4,-341.55 1956.15,-341.55 1956.15,14.4 -14.4,14.4"/>
<g id="clust1" class="cluster">
<title>cluster_sources</title>
<path fill="white" stroke="#d8e2ea" d="M20,-145.15C20,-145.15 142,-145.15 142,-145.15 148,-145.15 154,-151.15 154,-157.15 154,-157.15 154,-282.15 154,-282.15 154,-288.15 148,-294.15 142,-294.15 142,-294.15 20,-294.15 20,-294.15 14,-294.15 8,-288.15 8,-282.15 8,-282.15 8,-157.15 8,-157.15 8,-151.15 14,-145.15 20,-145.15"/>
<text xml:space="preserve" text-anchor="middle" x="81" y="-276.85" font-family="Times,serif" font-size="14.00">Observation Sources</text>
</g>
<g id="clust2" class="cluster">
<title>cluster_gate</title>
<path fill="white" stroke="#cfe4d1" d="M289,-170.15C289,-170.15 1008.25,-170.15 1008.25,-170.15 1014.25,-170.15 1020.25,-176.15 1020.25,-182.15 1020.25,-182.15 1020.25,-307.15 1020.25,-307.15 1020.25,-313.15 1014.25,-319.15 1008.25,-319.15 1008.25,-319.15 289,-319.15 289,-319.15 283,-319.15 277,-313.15 277,-307.15 277,-307.15 277,-182.15 277,-182.15 277,-176.15 283,-170.15 289,-170.15"/>
<text xml:space="preserve" text-anchor="middle" x="648.62" y="-301.85" font-family="Times,serif" font-size="14.00">Write&#45;Time Governance</text>
</g>
<g id="clust3" class="cluster">
<title>cluster_memory</title>
<path fill="white" stroke="#f2d9c7" d="M1098.25,-105.15C1098.25,-105.15 1435.25,-105.15 1435.25,-105.15 1441.25,-105.15 1447.25,-111.15 1447.25,-117.15 1447.25,-117.15 1447.25,-242.15 1447.25,-242.15 1447.25,-248.15 1441.25,-254.15 1435.25,-254.15 1435.25,-254.15 1098.25,-254.15 1098.25,-254.15 1092.25,-254.15 1086.25,-248.15 1086.25,-242.15 1086.25,-242.15 1086.25,-117.15 1086.25,-117.15 1086.25,-111.15 1092.25,-105.15 1098.25,-105.15"/>
<text xml:space="preserve" text-anchor="middle" x="1266.75" y="-236.85" font-family="Times,serif" font-size="14.00">Typed Memory</text>
</g>
<g id="clust4" class="cluster">
<title>cluster_downstream</title>
<path fill="white" stroke="#d9d4ef" d="M1502.25,-50.15C1502.25,-50.15 1921.75,-50.15 1921.75,-50.15 1927.75,-50.15 1933.75,-56.15 1933.75,-62.15 1933.75,-62.15 1933.75,-126.15 1933.75,-126.15 1933.75,-132.15 1927.75,-138.15 1921.75,-138.15 1921.75,-138.15 1502.25,-138.15 1502.25,-138.15 1496.25,-138.15 1490.25,-132.15 1490.25,-126.15 1490.25,-126.15 1490.25,-62.15 1490.25,-62.15 1490.25,-56.15 1496.25,-50.15 1502.25,-50.15"/>
<text xml:space="preserve" text-anchor="middle" x="1712" y="-120.85" font-family="Times,serif" font-size="14.00">Downstream Use</text>
</g>
<!-- user -->
<g id="node1" class="node">
<title>user</title>
<path fill="#eef4f8" stroke="#90a4b4" stroke-width="1.2" d="M132.12,-261.15C132.12,-261.15 29.87,-261.15 29.87,-261.15 23.88,-261.15 17.88,-255.15 17.88,-249.15 17.88,-249.15 17.88,-237.15 17.88,-237.15 17.88,-231.15 23.88,-225.15 29.88,-225.15 29.88,-225.15 132.12,-225.15 132.12,-225.15 138.12,-225.15 144.12,-231.15 144.12,-237.15 144.12,-237.15 144.12,-249.15 144.12,-249.15 144.12,-255.15 138.12,-261.15 132.12,-261.15"/>
<text xml:space="preserve" text-anchor="middle" x="81" y="-238.13" font-family="Helvetica,sans-Serif" font-size="12.00">User / Tool / Browser</text>
</g>
<!-- ingest -->
<g id="node3" class="node">
<title>ingest</title>
<path fill="#f1f8f2" stroke="#6fa079" stroke-width="1.2" d="M453.25,-232.15C453.25,-232.15 297,-232.15 297,-232.15 291,-232.15 285,-226.15 285,-220.15 285,-220.15 285,-208.15 285,-208.15 285,-202.15 291,-196.15 297,-196.15 297,-196.15 453.25,-196.15 453.25,-196.15 459.25,-196.15 465.25,-202.15 465.25,-208.15 465.25,-208.15 465.25,-220.15 465.25,-220.15 465.25,-226.15 459.25,-232.15 453.25,-232.15"/>
<text xml:space="preserve" text-anchor="middle" x="375.12" y="-209.13" font-family="Helvetica,sans-Serif" font-size="12.00">Channel + Source Provenance</text>
</g>
<!-- user&#45;&gt;ingest -->
<g id="edge1" class="edge">
<title>user&#45;&gt;ingest</title>
<path fill="none" stroke="#5b6570" stroke-width="1.1" d="M144.67,-236.93C181.99,-233.23 230.22,-228.44 272.84,-224.21"/>
<polygon fill="#5b6570" stroke="#5b6570" stroke-width="1.1" points="273.14,-227.69 282.74,-223.22 272.45,-220.73 273.14,-227.69"/>
<text xml:space="preserve" text-anchor="middle" x="215.5" y="-235.52" font-family="Helvetica,sans-Serif" font-size="10.00">raw observations</text>
</g>
<!-- vision -->
<g id="node2" class="node">
<title>vision</title>
<path fill="#eef4f8" stroke="#90a4b4" stroke-width="1.2" d="M134,-189.15C134,-189.15 28,-189.15 28,-189.15 22,-189.15 16,-183.15 16,-177.15 16,-177.15 16,-165.15 16,-165.15 16,-159.15 22,-153.15 28,-153.15 28,-153.15 134,-153.15 134,-153.15 140,-153.15 146,-159.15 146,-165.15 146,-165.15 146,-177.15 146,-177.15 146,-183.15 140,-189.15 134,-189.15"/>
<text xml:space="preserve" text-anchor="middle" x="81" y="-166.13" font-family="Helvetica,sans-Serif" font-size="12.00">OCR / Vision Caption</text>
</g>
<!-- vision&#45;&gt;ingest -->
<g id="edge2" class="edge">
<title>vision&#45;&gt;ingest</title>
<path fill="none" stroke="#5b6570" stroke-width="1.1" d="M146.47,-180.64C183.64,-186.11 231.19,-193.11 273.21,-199.3"/>
<polygon fill="#5b6570" stroke="#5b6570" stroke-width="1.1" points="272.56,-202.74 282.97,-200.73 273.58,-195.81 272.56,-202.74"/>
<text xml:space="preserve" text-anchor="middle" x="215.5" y="-198.25" font-family="Helvetica,sans-Serif" font-size="10.00">multimodal signals</text>
</g>
<!-- trust -->
<g id="node4" class="node">
<title>trust</title>
<path fill="#f1f8f2" stroke="#6fa079" stroke-width="1.2" d="M720,-232.15C720,-232.15 618.5,-232.15 618.5,-232.15 612.5,-232.15 606.5,-226.15 606.5,-220.15 606.5,-220.15 606.5,-208.15 606.5,-208.15 606.5,-202.15 612.5,-196.15 618.5,-196.15 618.5,-196.15 720,-196.15 720,-196.15 726,-196.15 732,-202.15 732,-208.15 732,-208.15 732,-220.15 732,-220.15 732,-226.15 726,-232.15 720,-232.15"/>
<text xml:space="preserve" text-anchor="middle" x="669.25" y="-215.5" font-family="Helvetica,sans-Serif" font-size="12.00">Trust + Anomaly +</text>
<text xml:space="preserve" text-anchor="middle" x="669.25" y="-202.75" font-family="Helvetica,sans-Serif" font-size="12.00">Consistency Checks</text>
</g>
<!-- ingest&#45;&gt;trust -->
<g id="edge3" class="edge">
<title>ingest&#45;&gt;trust</title>
<path fill="none" stroke="#5b6570" stroke-width="1.1" d="M465.76,-214.15C507.04,-214.15 555.42,-214.15 594.54,-214.15"/>
<polygon fill="#5b6570" stroke="#5b6570" stroke-width="1.1" points="594.44,-217.65 604.44,-214.15 594.44,-210.65 594.44,-217.65"/>
<text xml:space="preserve" text-anchor="middle" x="535.88" y="-215.9" font-family="Helvetica,sans-Serif" font-size="10.00">typed write request</text>
</g>
<!-- browse -->
<g id="node5" class="node">
<title>browse</title>
<path fill="#e8f6ea" stroke="#4f8b5b" stroke-width="1.2" d="M1000.25,-286.15C1000.25,-286.15 890.5,-286.15 890.5,-286.15 884.5,-286.15 878.5,-280.15 878.5,-274.15 878.5,-274.15 878.5,-262.15 878.5,-262.15 878.5,-256.15 884.5,-250.15 890.5,-250.15 890.5,-250.15 1000.25,-250.15 1000.25,-250.15 1006.25,-250.15 1012.25,-256.15 1012.25,-262.15 1012.25,-262.15 1012.25,-274.15 1012.25,-274.15 1012.25,-280.15 1006.25,-286.15 1000.25,-286.15"/>
<text xml:space="preserve" text-anchor="middle" x="945.38" y="-269.5" font-family="Helvetica,sans-Serif" font-size="12.00">BrowseGuard:</text>
<text xml:space="preserve" text-anchor="middle" x="945.38" y="-256.75" font-family="Helvetica,sans-Serif" font-size="12.00">Structured Claim Gate</text>
</g>
<!-- trust&#45;&gt;browse -->
<g id="edge4" class="edge">
<title>trust&#45;&gt;browse</title>
<path fill="none" stroke="#5b6570" stroke-width="1.1" d="M732.45,-226.4C772.25,-234.24 824.18,-244.47 866.68,-252.85"/>
<polygon fill="#5b6570" stroke="#5b6570" stroke-width="1.1" points="865.99,-256.28 876.48,-254.78 867.34,-249.41 865.99,-256.28"/>
<text xml:space="preserve" text-anchor="middle" x="805.25" y="-250.89" font-family="Helvetica,sans-Serif" font-size="10.00">browser claims</text>
</g>
<!-- dep -->
<g id="node6" class="node">
<title>dep</title>
<path fill="#e8f6ea" stroke="#4f8b5b" stroke-width="1.2" d="M998,-214.15C998,-214.15 892.75,-214.15 892.75,-214.15 886.75,-214.15 880.75,-208.15 880.75,-202.15 880.75,-202.15 880.75,-190.15 880.75,-190.15 880.75,-184.15 886.75,-178.15 892.75,-178.15 892.75,-178.15 998,-178.15 998,-178.15 1004,-178.15 1010,-184.15 1010,-190.15 1010,-190.15 1010,-202.15 1010,-202.15 1010,-208.15 1004,-214.15 998,-214.15"/>
<text xml:space="preserve" text-anchor="middle" x="945.38" y="-197.5" font-family="Helvetica,sans-Serif" font-size="12.00">Dependent&#45;Evidence</text>
<text xml:space="preserve" text-anchor="middle" x="945.38" y="-184.75" font-family="Helvetica,sans-Serif" font-size="12.00">Handling</text>
</g>
<!-- trust&#45;&gt;dep -->
<g id="edge5" class="edge">
<title>trust&#45;&gt;dep</title>
<path fill="none" stroke="#5b6570" stroke-width="1.1" d="M732.45,-210.07C772.97,-207.41 826.07,-203.92 868.99,-201.1"/>
<polygon fill="#5b6570" stroke="#5b6570" stroke-width="1.1" points="869.11,-204.6 878.85,-200.45 868.65,-197.62 869.11,-204.6"/>
<text xml:space="preserve" text-anchor="middle" x="805.25" y="-209.56" font-family="Helvetica,sans-Serif" font-size="10.00">cross&#45;modal support</text>
</g>
<!-- audit -->
<g id="node10" class="node">
<title>audit</title>
<path fill="#fff5ee" stroke="#c28b62" stroke-width="1.2" d="M1194.25,-149.15C1194.25,-149.15 1106.25,-149.15 1106.25,-149.15 1100.25,-149.15 1094.25,-143.15 1094.25,-137.15 1094.25,-137.15 1094.25,-125.15 1094.25,-125.15 1094.25,-119.15 1100.25,-113.15 1106.25,-113.15 1106.25,-113.15 1194.25,-113.15 1194.25,-113.15 1200.25,-113.15 1206.25,-119.15 1206.25,-125.15 1206.25,-125.15 1206.25,-137.15 1206.25,-137.15 1206.25,-143.15 1200.25,-149.15 1194.25,-149.15"/>
<text xml:space="preserve" text-anchor="middle" x="1150.25" y="-126.13" font-family="Helvetica,sans-Serif" font-size="12.00">Audit / Quarantine</text>
</g>
<!-- trust&#45;&gt;audit -->
<g id="edge8" class="edge">
<title>trust&#45;&gt;audit</title>
<path fill="none" stroke="#b96a5b" stroke-width="1.1" stroke-dasharray="5,2" d="M717.82,-195.68C759.5,-180.35 822.07,-159.43 878.5,-148.9 947.24,-136.07 1027.29,-132.15 1082.43,-131.12"/>
<polygon fill="#b96a5b" stroke="#b96a5b" stroke-width="1.1" points="1082.2,-134.63 1092.14,-130.97 1082.09,-127.63 1082.2,-134.63"/>
<text xml:space="preserve" text-anchor="middle" x="945.38" y="-150.65" font-family="Helvetica,sans-Serif" font-size="10.00">quarantine / reject</text>
</g>
<!-- evidence -->
<g id="node7" class="node">
<title>evidence</title>
<path fill="#fff5ee" stroke="#c28b62" stroke-width="1.2" d="M1171.38,-221.15C1171.38,-221.15 1129.12,-221.15 1129.12,-221.15 1123.12,-221.15 1117.12,-215.15 1117.12,-209.15 1117.12,-209.15 1117.12,-197.15 1117.12,-197.15 1117.12,-191.15 1123.12,-185.15 1129.12,-185.15 1129.12,-185.15 1171.38,-185.15 1171.38,-185.15 1177.38,-185.15 1183.38,-191.15 1183.38,-197.15 1183.38,-197.15 1183.38,-209.15 1183.38,-209.15 1183.38,-215.15 1177.38,-221.15 1171.38,-221.15"/>
<text xml:space="preserve" text-anchor="middle" x="1150.25" y="-198.13" font-family="Helvetica,sans-Serif" font-size="12.00">Evidence</text>
</g>
<!-- browse&#45;&gt;evidence -->
<g id="edge6" class="edge">
<title>browse&#45;&gt;evidence</title>
<path fill="none" stroke="#5b6570" stroke-width="1.1" d="M1004.24,-249.61C1036.54,-239.26 1076.11,-226.58 1105.75,-217.09"/>
<polygon fill="#5b6570" stroke="#5b6570" stroke-width="1.1" points="1106.55,-220.51 1115.01,-214.12 1104.42,-213.84 1106.55,-220.51"/>
<text xml:space="preserve" text-anchor="middle" x="1053.25" y="-239.35" font-family="Helvetica,sans-Serif" font-size="10.00">admit</text>
</g>
<!-- dep&#45;&gt;evidence -->
<g id="edge7" class="edge">
<title>dep&#45;&gt;evidence</title>
<path fill="none" stroke="#5b6570" stroke-width="1.1" d="M1010.57,-198.37C1041.44,-199.43 1077.67,-200.68 1105.35,-201.64"/>
<polygon fill="#5b6570" stroke="#5b6570" stroke-width="1.1" points="1104.88,-205.12 1114.99,-201.97 1105.12,-198.13 1104.88,-205.12"/>
<text xml:space="preserve" text-anchor="middle" x="1053.25" y="-201.82" font-family="Helvetica,sans-Serif" font-size="10.00">admit</text>
</g>
<!-- belief -->
<g id="node8" class="node">
<title>belief</title>
<path fill="#fff5ee" stroke="#c28b62" stroke-width="1.2" d="M1426.75,-221.15C1426.75,-221.15 1396.75,-221.15 1396.75,-221.15 1390.75,-221.15 1384.75,-215.15 1384.75,-209.15 1384.75,-209.15 1384.75,-197.15 1384.75,-197.15 1384.75,-191.15 1390.75,-185.15 1396.75,-185.15 1396.75,-185.15 1426.75,-185.15 1426.75,-185.15 1432.75,-185.15 1438.75,-191.15 1438.75,-197.15 1438.75,-197.15 1438.75,-209.15 1438.75,-209.15 1438.75,-215.15 1432.75,-221.15 1426.75,-221.15"/>
<text xml:space="preserve" text-anchor="middle" x="1411.75" y="-198.13" font-family="Helvetica,sans-Serif" font-size="12.00">Belief</text>
</g>
<!-- evidence&#45;&gt;belief -->
<g id="edge9" class="edge">
<title>evidence&#45;&gt;belief</title>
<path fill="none" stroke="#5b6570" stroke-width="1.1" d="M1183.85,-203.15C1231.99,-203.15 1321.88,-203.15 1372.88,-203.15"/>
<polygon fill="#5b6570" stroke="#5b6570" stroke-width="1.1" points="1372.69,-206.65 1382.69,-203.15 1372.69,-199.65 1372.69,-206.65"/>
<text xml:space="preserve" text-anchor="middle" x="1295.25" y="-204.9" font-family="Helvetica,sans-Serif" font-size="10.00">sufficiency&#45;gated promotion</text>
</g>
<!-- control -->
<g id="node9" class="node">
<title>control</title>
<path fill="#fff5ee" stroke="#c28b62" stroke-width="1.2" d="M1427.25,-149.15C1427.25,-149.15 1396.25,-149.15 1396.25,-149.15 1390.25,-149.15 1384.25,-143.15 1384.25,-137.15 1384.25,-137.15 1384.25,-125.15 1384.25,-125.15 1384.25,-119.15 1390.25,-113.15 1396.25,-113.15 1396.25,-113.15 1427.25,-113.15 1427.25,-113.15 1433.25,-113.15 1439.25,-119.15 1439.25,-125.15 1439.25,-125.15 1439.25,-137.15 1439.25,-137.15 1439.25,-143.15 1433.25,-149.15 1427.25,-149.15"/>
<text xml:space="preserve" text-anchor="middle" x="1411.75" y="-126.13" font-family="Helvetica,sans-Serif" font-size="12.00">Control</text>
</g>
<!-- evidence&#45;&gt;control -->
<g id="edge10" class="edge">
<title>evidence&#45;&gt;control</title>
<path fill="none" stroke="#5b6570" stroke-width="1.1" d="M1183.85,-194.11C1231.97,-180.75 1321.79,-155.83 1372.8,-141.68"/>
<polygon fill="#5b6570" stroke="#5b6570" stroke-width="1.1" points="1373.67,-145.07 1382.37,-139.02 1371.8,-138.33 1373.67,-145.07"/>
<text xml:space="preserve" text-anchor="middle" x="1295.25" y="-179.56" font-family="Helvetica,sans-Serif" font-size="10.00">typed control memory</text>
</g>
<!-- retrieve -->
<g id="node11" class="node">
<title>retrieve</title>
<path fill="#f5f2fd" stroke="#8b79b3" stroke-width="1.2" d="M1655.25,-105.15C1655.25,-105.15 1510.25,-105.15 1510.25,-105.15 1504.25,-105.15 1498.25,-99.15 1498.25,-93.15 1498.25,-93.15 1498.25,-81.15 1498.25,-81.15 1498.25,-75.15 1504.25,-69.15 1510.25,-69.15 1510.25,-69.15 1655.25,-69.15 1655.25,-69.15 1661.25,-69.15 1667.25,-75.15 1667.25,-81.15 1667.25,-81.15 1667.25,-93.15 1667.25,-93.15 1667.25,-99.15 1661.25,-105.15 1655.25,-105.15"/>
<text xml:space="preserve" text-anchor="middle" x="1582.75" y="-82.13" font-family="Helvetica,sans-Serif" font-size="12.00">Provenance&#45;Aware Retrieval</text>
</g>
<!-- evidence&#45;&gt;retrieve -->
<g id="edge13" class="edge">
<title>evidence&#45;&gt;retrieve</title>
<path fill="none" stroke="#5b6570" stroke-width="1.1" d="M1182.01,-184.61C1190.13,-179.29 1198.72,-173.27 1206.25,-167.15 1220.39,-155.65 1219.55,-147.42 1235.25,-138.15 1311.42,-93.19 1412.91,-82.86 1486.35,-82.32"/>
<polygon fill="#5b6570" stroke="#5b6570" stroke-width="1.1" points="1486.22,-85.82 1496.22,-82.31 1486.22,-78.82 1486.22,-85.82"/>
</g>
<!-- belief&#45;&gt;retrieve -->
<g id="edge11" class="edge">
<title>belief&#45;&gt;retrieve</title>
<path fill="none" stroke="#5b6570" stroke-width="1.1" d="M1439.16,-185.03C1467.68,-165.45 1513.31,-134.13 1545.25,-112.2"/>
<polygon fill="#5b6570" stroke="#5b6570" stroke-width="1.1" points="1547.05,-115.21 1553.32,-106.67 1543.09,-109.44 1547.05,-115.21"/>
</g>
<!-- control&#45;&gt;retrieve -->
<g id="edge12" class="edge">
<title>control&#45;&gt;retrieve</title>
<path fill="none" stroke="#5b6570" stroke-width="1.1" d="M1439.53,-124.18C1455.86,-119.93 1477.69,-114.24 1499.34,-108.61"/>
<polygon fill="#5b6570" stroke="#5b6570" stroke-width="1.1" points="1500.21,-112 1509.01,-106.09 1498.45,-105.22 1500.21,-112"/>
</g>
<!-- audit&#45;&gt;retrieve -->
<g id="edge14" class="edge">
<title>audit&#45;&gt;retrieve</title>
<path fill="none" stroke="#b96a5b" stroke-width="1.1" stroke-dasharray="5,2" d="M1160.5,-112.71C1173.55,-88.93 1199.78,-48.45 1235.25,-30.15 1319.11,13.1 1355.48,3.05 1447.25,-18.9 1482.55,-27.34 1519.05,-46.65 1545.11,-62.58"/>
<polygon fill="#b96a5b" stroke="#b96a5b" stroke-width="1.1" points="1543.16,-65.49 1553.49,-67.83 1546.87,-59.56 1543.16,-65.49"/>
<text xml:space="preserve" text-anchor="middle" x="1411.75" y="-20.65" font-family="Helvetica,sans-Serif" font-size="10.00">lineage only</text>
</g>
<!-- qa -->
<g id="node12" class="node">
<title>qa</title>
<path fill="#f5f2fd" stroke="#8b79b3" stroke-width="1.2" d="M1913.75,-105.15C1913.75,-105.15 1812.25,-105.15 1812.25,-105.15 1806.25,-105.15 1800.25,-99.15 1800.25,-93.15 1800.25,-93.15 1800.25,-81.15 1800.25,-81.15 1800.25,-75.15 1806.25,-69.15 1812.25,-69.15 1812.25,-69.15 1913.75,-69.15 1913.75,-69.15 1919.75,-69.15 1925.75,-75.15 1925.75,-81.15 1925.75,-81.15 1925.75,-93.15 1925.75,-93.15 1925.75,-99.15 1919.75,-105.15 1913.75,-105.15"/>
<text xml:space="preserve" text-anchor="middle" x="1863" y="-82.13" font-family="Helvetica,sans-Serif" font-size="12.00">Planner / QA / Action</text>
</g>
<!-- retrieve&#45;&gt;qa -->
<g id="edge15" class="edge">
<title>retrieve&#45;&gt;qa</title>
<path fill="none" stroke="#5b6570" stroke-width="1.1" d="M1667.61,-87.15C1706.19,-87.15 1751.53,-87.15 1788.71,-87.15"/>
<polygon fill="#5b6570" stroke="#5b6570" stroke-width="1.1" points="1788.31,-90.65 1798.31,-87.15 1788.31,-83.65 1788.31,-90.65"/>
<text xml:space="preserve" text-anchor="middle" x="1733.75" y="-88.9" font-family="Helvetica,sans-Serif" font-size="10.00">grounded context</text>
</g>
</g>
</svg>
